<svg id="Layer_1" data-name="Layer 1" xmlns="http://www.w3.org/2000/svg" viewBox="0 0 100 100"><defs><style>.cls-1{fill:#fff;}</style></defs><path class="cls-1" d="M34.28,62.77a21.28,21.28,0,0,1-16.62,0,.73.73,0,0,1-.39-1L18,60.1a.73.73,0,0,1,.95-.39,17.73,17.73,0,0,0,14,0,.72.72,0,0,1,.94.39l.76,1.69A.75.75,0,0,1,34.28,62.77Z"/><path class="cls-1" d="M18.19,52.29v-9A1.11,1.11,0,0,1,19.3,42.2h1.48a1.1,1.1,0,0,1,1.11,1.11V51.4c0,3.88,8.15,3.88,8.15,0V43.31a1.11,1.11,0,0,1,1.11-1.11h1.48a1.11,1.11,0,0,1,1.11,1.11v9C33.74,59.55,18.19,59.55,18.19,52.29Z"/><polygon class="cls-1" points="66.51 51.45 66.51 51.45 66.51 51.45 66.51 51.45"/><rect class="cls-1" x="44.84" y="42.2" width="3.7" height="14.81" rx="1.11"/><rect class="cls-1" x="37.44" y="36.28" width="3.7" height="20.73" rx="1.11"/><circle class="cls-1" cx="46.69" cy="37.76" r="2.22"/><path class="cls-1" d="M60.07,49.2a.55.55,0,0,0,0,.8l6.35,6A.56.56,0,0,1,66,57H63.22a1.48,1.48,0,0,1-1-.43L56.58,51a.38.38,0,0,0-.64.26v4.66A1.1,1.1,0,0,1,54.83,57H53.35a1.11,1.11,0,0,1-1.11-1.11V37.39a1.11,1.11,0,0,1,1.11-1.11h1.48a1.1,1.1,0,0,1,1.11,1.11V48a.38.38,0,0,0,.64.26l5.59-5.6a1.48,1.48,0,0,1,1-.43H66a.56.56,0,0,1,.39,1Z"/><path class="cls-1" d="M74.6,41.45a8.09,8.09,0,0,0-8,8.14c0,6.9,6.57,9.9,13.89,7.11a1.12,1.12,0,0,0,.6-1.5l-.43-.91a1.1,1.1,0,0,0-1.36-.59c-3.46,1.24-7.44,1.53-8.83-2.26H81.67a1.12,1.12,0,0,0,1.12-1.07C83,46.1,80.08,41.45,74.6,41.45Zm-4.18,7a4.45,4.45,0,0,1,8.62,0Z"/></svg>