<svg id="Layer_1" data-name="Layer 1" xmlns="http://www.w3.org/2000/svg" viewBox="0 0 150 150"><defs><style>.cls-1{fill:#ff573f;}.cls-2{fill:#4d32b2;}</style></defs><path class="cls-1" d="M41.62,102.11A46.12,46.12,0,0,1,24,105.71a46.08,46.08,0,0,1-17.65-3.6A1.57,1.57,0,0,1,5.5,100l1.59-3.59a1.58,1.58,0,0,1,2-.83,37.72,37.72,0,0,0,29.73,0,1.57,1.57,0,0,1,2,.83L42.44,100A1.55,1.55,0,0,1,41.62,102.11Z"/><path class="cls-1" d="M7.46,79.86V60.79a2.37,2.37,0,0,1,2.36-2.36H13a2.36,2.36,0,0,1,2.35,2.36V78c0,8.25,17.29,8.25,17.29,0V60.79A2.36,2.36,0,0,1,35,58.43h3.14a2.36,2.36,0,0,1,2.36,2.36V79.86C40.47,95.27,7.46,95.27,7.46,79.86Z"/><path class="cls-2" d="M110.06,78.08Z"/><rect class="cls-2" x="64.05" y="58.43" width="7.86" height="31.43" rx="2.36"/><rect class="cls-2" x="48.33" y="45.86" width="7.86" height="44.01" rx="2.36"/><circle class="cls-2" cx="67.98" cy="49" r="4.72"/><path class="cls-2" d="M96.38,73.29a1.19,1.19,0,0,0,0,1.72l13.47,12.82a1.18,1.18,0,0,1-.81,2h-6a3.14,3.14,0,0,1-2.22-.92L89,77.07a.79.79,0,0,0-1.35.55v9.89a2.35,2.35,0,0,1-2.36,2.36H82.12a2.36,2.36,0,0,1-2.36-2.36V48.22a2.36,2.36,0,0,1,2.36-2.36h3.14a2.35,2.35,0,0,1,2.36,2.36V70.69a.79.79,0,0,0,1.35.55l11.88-11.89a3.14,3.14,0,0,1,2.22-.92h6a1.18,1.18,0,0,1,.81,2Z"/><path class="cls-2" d="M127.23,56.85a17.19,17.19,0,0,0-17,17.29c0,14.64,14,21,29.49,15.08A2.35,2.35,0,0,0,141,86l-.89-1.93a2.34,2.34,0,0,0-2.9-1.24c-7.35,2.61-15.8,3.23-18.74-4.81h23.8a2.37,2.37,0,0,0,2.36-2.27C145.07,66.72,138.87,56.85,127.23,56.85Zm-8.87,14.93c1.06-4.51,4.32-7.07,9.15-7.07s8.1,2.56,9.16,7.07Z"/></svg>